<svg xmlns="http://www.w3.org/2000/svg" viewBox="0 0 512 512">
  <rect width="512" height="512" fill="#ecf0f1"/>
  
  <!-- Microscope base -->
  <rect x="176" y="352" width="160" height="48" rx="8" fill="#34495e"/>
  <rect x="208" y="336" width="96" height="16" fill="#2c3e50"/>
  
  <!-- Microscope arm -->
  <rect x="240" y="176" width="32" height="160" fill="#7f8c8d"/>
  
  <!-- Microscope head -->
  <circle cx="256" cy="160" r="48" fill="#95a5a6"/>
  <circle cx="256" cy="160" r="32" fill="#3498db"/>
  <circle cx="256" cy="160" r="16" fill="#2980b9"/>
  
  <!-- Microscope eyepiece -->
  <rect x="240" y="112" width="32" height="32" fill="#7f8c8d"/>
  <circle cx="256" cy="96" r="16" fill="#7f8c8d"/>
  
  <!-- DNA helix -->
  <path d="M128 112c16 8 32 8 48 0s32-8 48 0 32 8 48 0" stroke="#e74c3c" stroke-width="8" fill="none"/>
  <path d="M128 144c16 8 32 8 48 0s32-8 48 0 32 8 48 0" stroke="#e74c3c" stroke-width="8" fill="none"/>
  <path d="M128 176c16 8 32 8 48 0s32-8 48 0 32 8 48 0" stroke="#e74c3c" stroke-width="8" fill="none"/>
  <path d="M128 208c16 8 32 8 48 0s32-8 48 0 32 8 48 0" stroke="#e74c3c" stroke-width="8" fill="none"/>
  
  <path d="M128 128c16-8 32-8 48 0s32 8 48 0 32-8 48 0" stroke="#3498db" stroke-width="8" fill="none"/>
  <path d="M128 160c16-8 32-8 48 0s32 8 48 0 32-8 48 0" stroke="#3498db" stroke-width="8" fill="none"/>
  <path d="M128 192c16-8 32-8 48 0s32 8 48 0 32-8 48 0" stroke="#3498db" stroke-width="8" fill="none"/>
  
  <!-- Lab flask -->
  <path d="M384 240v80c0 16 8 32 24 40 16 8 32 8 48 0 16-8 24-24 24-40v-80h-96z" fill="#9b59b6"/>
  <rect x="384" y="224" width="96" height="16" fill="#8e44ad"/>
  <path d="M408 240v80M456 240v80" stroke="#8e44ad" stroke-width="4" stroke-dasharray="8 8"/>
  <rect x="416" y="192" width="32" height="32" fill="#8e44ad"/>
</svg>